<?xml version="1.0" encoding="UTF-8"?>
<svg version="1.1" viewBox="0 0 1408 1536" width="352" height="384" xmlns="http://www.w3.org/2000/svg">
<path transform="translate(0)" d="m0 0h1408v1536h-1408z" fill="#FCF6EF"/>
<path transform="translate(373,162)" d="m0 0h769l1 186v334l-4-4-5-11-5-15-7-29-4-32-2-29-2-36-10-1-1-6v-33l-203-1v121h64l-2 19-4 19-2 3h-56v81l-14 7-19 7-7 1v-96h-160l-3-4-5-10-10-14-9-10v-3h187v-121l-203 1-1 105-4-2-14-10-20-12-2-1v-81l-203 1-1 30h-20l-19-1z" fill="#353434"/>
<path transform="translate(353,566)" d="m0 0h36l39 2 36 4 29 5 31 7 29 9 25 10 27 14 13 9 10 8 14 14 7 11 5 11 3 16-1 430-37 37-3 1v-403l-12 7-22 12-27 11-29 9-28 7-28 5-28 4-21 2-18 1h-63l-29-2-42-6-31-6-30-8-24-8-23-10-21-11-11-7v305l1 123 6 10 10 10 15 10 23 12 21 8 25 8 25 6 25 5 40 5 28 2h43l33-2 39-5 26-5 29-7 20-6 3 1-7 6-7 8-37 37-6 4-22 4-27 3-37 2h-52l-44-3-25-3-28-5-30-7-29-9-20-8-23-11-19-12-13-11-10-10-9-13-5-11-2-9v-506l3-10 8-14 8-10 11-11 15-11 15-9 16-8 19-8 27-9 23-6 35-7 36-5 23-2z" fill="#353434"/>
<path transform="translate(1020,567)" d="m0 0h44l8 64 6 25 5 18 8 21 10 19 10 15 9 11 9 10 11 9 11 8 17 10 21 9 21 7 23 5 28 4 43 4 1 1v45l-49 5-32 6-23 6-17 6-23 11-11 7-10 7-15 13-10 11-9 12-10 17-9 19-9 27-6 24-6 45-2 23-1 1h-43l-2-2-2-27-5-36-6-25-6-20-8-19-8-16-10-15-4-1-437 437-8 6-7 3h-7l-7-3-5-4-3-6v-11l4-8 283-283 7-8 15-14 5-6 4-4h2v-2l8-7 104-104 7-8 7-6h2l-1-4-20-12-16-8-19-8-25-7-25-5-21-3-37-4v-44l9-2 37-4 30-5 25-6 23-8 17-8 17-10 20-16 11-11 12-17 8-13 9-19 8-24 5-19 6-39z" fill="#198AD0"/>
<path transform="translate(348,606)" d="m0 0h51l44 4 34 5 28 6 28 8 19 7 20 9 16 9 12 9 8 7 6 9 2 5v9l-7 11-7 7-16 11-23 12-25 10-29 9-32 7-35 5-40 4h-62l-54-6-24-4-33-8-20-6-27-11-20-10-15-10-12-11-5-8-1-4v-7l5-10 8-9 15-11 18-10 20-9 33-11 25-6 34-6 37-4z" fill="#FCF6EF"/>
<path transform="translate(432,200)" d="m0 0h637l34 1v81l-1 1h-497l-192-1-1-1v-80z" fill="#A3D2F1"/>
<path transform="translate(1041,682)" d="m0 0 4 4 6 16 11 24 9 16 9 13 8 10 12 13 10 9 12 9 18 11 15 8 20 8 14 5v4l-21 7-25 12-13 8-14 10-10 8-10 9-7 8-12 15-10 15-13 25-7 18-3 11-3 2-3-4-3-10-7-18-8-16-14-22-10-13-7-7-6-7-8-7-12-10-15-10-12-7-20-9-14-5-10-4 1-3 12-4 22-9 17-9 14-9 11-8 10-9 8-7 5-5 8-9 8-10 12-19 11-21 7-19z" fill="#FAF5EF"/>
<path transform="translate(412,322)" d="m0 0h204v122l-50 1h-153l-1-1z" fill="#FCF6EF"/>
<path transform="translate(657,322)" d="m0 0h203v122l-52 1h-150l-2-1v-121z" fill="#FBF6EF"/>
<path transform="translate(900,322)" d="m0 0h203l1 1v120l-6 2h-197l-1-1-1-121z" fill="#FCF6EF"/>
<path transform="translate(1143,1179)" d="m0 0h2l9 20 7 11 11 12 9 6 13 5 6 2-3 2-15 6-13 8-4 4h-2l-2 4-7 10-10 21-2-1-5-13-6-11-8-10-10-7-16-8-11-5 2-2 13-4 14-7 12-11 9-15 6-14z" fill="#198AD0"/>
<path transform="translate(1224,1018)" d="m0 0h2l6 15 7 12 9 10 10 7 15 7 8 3-2 2-10 4-18 10-11 11-11 19-4 10-2-3-6-14-7-11-8-9-14-9-14-7-6-2 4-3 12-4 13-7 11-10 8-13z" fill="#198AD0"/>
<path transform="translate(698,769)" d="m0 0h38l1 1v38l-1 1h-38z" fill="#353434"/>
<path transform="translate(998,980)" d="m0 0 2 2 9 31 4 21 4 29 2 27 1 1h43l3-31 5-37 4-16h1l-1 9-4 25-4 32-2 20-1 1h-27l-19-1-1-1-3-32-6-40-6-24-4-13z" fill="#A4D3F2"/>
<path transform="translate(1136,902)" d="m0 0 2 1-23 23v-3l12-13z" fill="#BFDEF1"/>
<path transform="translate(1186,1230)" d="m0 0 14 2 3 2v2l-11 4-3-1 10-4-11-3z" fill="#A4D3F2"/>
<path transform="translate(1220,1118)" d="m0 0 2 2 2 5 4-4-2 10-2 2-3-8z" fill="#A4D3F2"/>
<path transform="translate(1224,1014)" d="m0 0h2l3 8-1 4-2-5v-3h-2l-1 2v-5z" fill="#A4D3F2"/>
</svg>
