<svg width="71" height="69" viewBox="0 0 71 69" fill="none" xmlns="http://www.w3.org/2000/svg">
<g clip-path="url(#clip0_1_21)">
<path d="M0 -4.24615H71V74.3077H0V-4.24615Z" fill="white"/>
<path d="M18.8089 4.03882H57.5866L57.6371 13.5512V30.6326L57.4354 30.428L57.1832 29.8654L56.9311 29.0983L56.5781 27.6152L56.3764 25.9787L56.2756 24.4955L56.1747 22.6544L55.6705 22.6033L55.62 22.2964V20.6088L45.3835 20.5576V26.7458H48.6108L48.5099 27.7175L48.3082 28.6892L48.2074 28.8426H45.3835V32.9851L44.6776 33.3431L43.7195 33.7011L43.3665 33.7522V28.8426H35.2983L35.147 28.638L34.8949 28.1266L34.3906 27.4106L33.9368 26.8992V26.7458H43.3665V20.5576L33.13 20.6088L33.0795 25.9787L32.8778 25.8764L32.1719 25.365L31.1634 24.7513L31.0625 24.7001V20.5576L20.826 20.6088L20.7756 22.143H19.767L18.8089 22.0919V4.03882Z" fill="#353434"/>
<path d="M17.8004 24.7001H19.6158L21.5824 24.8024L23.3977 25.007L24.8601 25.2627L26.4233 25.6207L27.8857 26.0809L29.1463 26.5924L30.5078 27.3084L31.1634 27.7686L31.6676 28.1778L32.3736 28.8937L32.7266 29.4563L32.9787 30.0189L33.13 30.8371L33.0795 52.8281L31.2138 54.7204L31.0625 54.7715V34.1614L30.4574 34.5193L29.348 35.1331L27.9865 35.6956L26.5241 36.1559L25.1122 36.5139L23.7003 36.7696L22.2884 36.9742L21.2294 37.0764L20.3217 37.1276H17.1449L15.6825 37.0253L13.5646 36.7184L12.0014 36.4116L10.4886 36.0025L9.27841 35.5933L8.11861 35.0819L7.05966 34.5193L6.50497 34.1614V49.7596L6.5554 56.0501L6.85795 56.5615L7.36222 57.0729L8.11861 57.5843L9.27841 58.198L10.3374 58.6071L11.598 59.0163L12.8587 59.3231L14.1193 59.5788L16.1364 59.8346L17.5483 59.9368H19.7166L21.3807 59.8346L23.3473 59.5788L24.6584 59.3231L26.1207 58.9651L27.1293 58.6583L27.2805 58.7094L26.9276 59.0163L26.5746 59.4254L24.7088 61.3177L24.4063 61.5222L23.2969 61.7268L21.9354 61.8802L20.0696 61.9825H17.4474L15.2287 61.8291L13.968 61.6757L12.5561 61.4199L11.0433 61.062L9.58097 60.6017L8.57244 60.1925L7.41264 59.63L6.45455 59.0163L5.79901 58.4537L5.29474 57.9423L4.84091 57.2775L4.58878 56.7149L4.48793 56.2546V30.3769L4.6392 29.8654L5.04261 29.1495L5.44602 28.638L6.00071 28.0755L6.7571 27.5129L7.51349 27.0526L8.32031 26.6435L9.27841 26.2344L10.6399 25.7741L11.7997 25.4672L13.5646 25.1093L15.38 24.8535L16.5398 24.7513L17.8004 24.7001Z" fill="#353434"/>
<path d="M51.4347 24.7513H53.6534L54.0568 28.0243L54.3594 29.3029L54.6115 30.2234L55.0149 31.2974L55.5192 32.2691L56.0234 33.0362L56.4773 33.5988L56.9311 34.1102L57.4858 34.5705L58.0405 34.9796L58.8977 35.4911L59.9567 35.9513L61.0156 36.3093L62.1754 36.565L63.5874 36.7696L65.7557 36.9742L65.8061 37.0253V39.3267L63.3352 39.5824L61.7216 39.8892L60.5618 40.1961L59.7045 40.5029L58.5447 41.0655L57.9901 41.4235L57.4858 41.7815L56.7294 42.4463L56.2251 43.0089L55.7713 43.6226L55.267 44.492L54.8132 45.4637L54.3594 46.8445L54.0568 48.0719L53.7543 50.3733L53.6534 51.5496L53.603 51.6007H51.4347L51.3338 51.4984L51.233 50.1176L50.9808 48.2765L50.6783 46.998L50.3757 45.9751L49.9723 45.0034L49.5689 44.1852L49.0646 43.418L48.8629 43.3669L26.8267 65.7159L26.4233 66.0227L26.0703 66.1761H25.7173L25.3643 66.0227L25.1122 65.8182L24.9609 65.5113V64.9487L25.1626 64.5396L39.4332 50.0665L39.7862 49.6573L40.5426 48.9414L40.7947 48.6345L40.9964 48.4299H41.0973V48.3276L41.5007 47.9697L46.745 42.6509L47.098 42.2418L47.451 41.9349H47.5518L47.5014 41.7304L46.4929 41.1167L45.6861 40.7075L44.728 40.2984L43.4673 39.9404L42.2067 39.6847L41.1477 39.5313L39.282 39.3267V37.0764L39.7358 36.9742L41.6016 36.7696L43.1143 36.5139L44.375 36.207L45.5348 35.7979L46.392 35.3888L47.2493 34.8773L48.2578 34.0591L48.8125 33.4965L49.4176 32.6271L49.821 31.9623L50.2749 30.9906L50.6783 29.7632L50.9304 28.7915L51.233 26.7969L51.4347 24.7513Z" fill="#198AD0"/>
<path d="M17.5483 26.7458H20.12L22.3388 26.9504L24.0533 27.2061L25.4652 27.5129L26.8771 27.9221L27.8352 28.28L28.8437 28.7403L29.6506 29.2006L30.2557 29.6609L30.6591 30.0189L30.9616 30.4791L31.0625 30.7349V31.1951L30.7095 31.7577L30.3565 32.1157L29.5497 32.6782L28.3899 33.2919L27.1293 33.8034L25.6669 34.2636L24.0533 34.6216L22.2884 34.8773L20.2713 35.0819H17.1449L14.4219 34.7751L13.2116 34.5705L11.5476 34.1614L10.5391 33.8545L9.17756 33.2919L8.16903 32.7805L7.41264 32.2691L6.80753 31.7065L6.5554 31.2974L6.50497 31.0928V30.7349L6.7571 30.2234L7.16051 29.7632L7.9169 29.2006L8.82457 28.6892L9.8331 28.2289L11.4972 27.6663L12.7578 27.3595L14.4723 27.0526L16.3381 26.8481L17.5483 26.7458Z" fill="#FCF6EF"/>
<path d="M21.7841 5.98221H53.9055L55.62 6.03335V10.1758L55.5696 10.227H30.5078L20.826 10.1758L20.7756 10.1247V6.03335L21.7841 5.98221Z" fill="#A3D2F1"/>
<path d="M52.4936 30.6326L52.6953 30.8371L52.9979 31.6554L53.5526 32.8828L54.0064 33.7011L54.4602 34.3659L54.8636 34.8773L55.4688 35.5422L55.973 36.0025L56.5781 36.4627L57.4858 37.0253L58.2422 37.4344L59.2507 37.8436L59.9567 38.0993V38.3038L58.8977 38.6618L57.6371 39.2755L56.9815 39.6847L56.2756 40.1961L55.7713 40.6052L55.267 41.0655L54.9141 41.4746L54.3089 42.2418L53.8047 43.0089L53.1491 44.2874L52.7962 45.208L52.6449 45.7705L52.4936 45.8728L52.3423 45.6683L52.1911 45.1568L51.8381 44.2363L51.4347 43.418L50.7287 42.2929L50.2244 41.6281L49.8714 41.2701L49.5689 40.9121L49.1655 40.5541L48.5604 40.0427L47.804 39.5312L47.1989 39.1733L46.1903 38.713L45.4844 38.4573L44.9801 38.2527L45.0305 38.0993L45.6357 37.8947L46.745 37.4344L47.6023 36.9742L48.3082 36.5139L48.8629 36.1047L49.3672 35.6445L49.7706 35.2865L50.0227 35.0308L50.4261 34.5705L50.8295 34.0591L51.4347 33.0874L51.9893 32.0134L52.3423 31.0417L52.4936 30.6326Z" fill="#FAF5EF"/>
<path d="M20.7756 12.2215H31.0625V18.4608L28.5412 18.512H20.826L20.7756 18.4608V12.2215Z" fill="#FCF6EF"/>
<path d="M33.13 12.2215H43.3665V18.4608L40.7443 18.512H33.1804L33.0795 18.4608V12.2727L33.13 12.2215Z" fill="#FBF6EF"/>
<path d="M45.3835 12.2215H55.62L55.6705 12.2727V18.4097L55.3679 18.512H45.4339L45.3835 18.4608L45.3331 12.2727L45.3835 12.2215Z" fill="#FCF6EF"/>
<path d="M57.6371 56.0501H57.7379L58.1918 57.0729L58.5447 57.6355L59.0994 58.2492L59.5533 58.556L60.2088 58.8117L60.5114 58.914L60.3601 59.0163L59.6037 59.3231L58.9482 59.7323L58.7464 59.9368H58.6456L58.5447 60.1414L58.1918 60.6528L57.6875 61.7268L57.5866 61.6757L57.3345 61.0108L57.032 60.4483L56.6286 59.9368L56.1243 59.5788L55.3175 59.1697L54.7628 58.914L54.8636 58.8117L55.5192 58.6072L56.2251 58.2492L56.8303 57.6866L57.2841 56.9195L57.5866 56.2035L57.6371 56.0501Z" fill="#198AD0"/>
<path d="M61.7216 47.8162H61.8224L62.125 48.5834L62.478 49.1971L62.9318 49.7085L63.4361 50.0665L64.1925 50.4245L64.5959 50.5779L64.495 50.6802L63.9908 50.8847L63.0831 51.3962L62.5284 51.9587L61.9737 52.9304L61.772 53.4418L61.6712 53.2884L61.3686 52.5724L61.0156 52.0099L60.6122 51.5496L59.9062 51.0893L59.2003 50.7313L58.8977 50.629L59.0994 50.4756L59.7045 50.271L60.3601 49.913L60.9148 49.4016L61.3182 48.7368L61.7216 47.8162Z" fill="#198AD0"/>
<path d="M35.1974 35.0819H37.1136L37.1641 35.1331V37.0764L37.1136 37.1276H35.1974V35.0819Z" fill="#353434"/>
<path d="M50.3253 45.8728L50.4261 45.9751L50.88 47.5605L51.0817 48.6345L51.2834 50.1176L51.3842 51.4984L51.4347 51.5496H53.603L53.7543 49.9642L54.0064 48.0719L54.2081 47.2537H54.2585L54.2081 47.7139L54.0064 48.9925L53.8047 50.629L53.7038 51.6519L53.6534 51.703H52.2919L51.3338 51.6519L51.2834 51.6007L51.1321 49.9642L50.8295 47.9185L50.527 46.6911L50.3253 46.0263V45.8728Z" fill="#A4D3F2"/>
<path d="M57.2841 41.8838L57.3849 41.9349L56.2251 43.1112V42.9578L56.8303 42.2929L57.2841 41.8838Z" fill="#BFDEF1"/>
<path d="M59.8054 58.6583L60.5114 58.7606L60.6626 58.8629V58.9651L60.108 59.1697L59.9567 59.1186L60.4609 58.914L59.9063 58.7606L59.8054 58.6583Z" fill="#A4D3F2"/>
<path d="M61.5199 52.9304L61.6207 53.0327L61.7216 53.2884L61.9233 53.0838L61.8224 53.5952L61.7216 53.6975L61.5703 53.2884L61.5199 52.9304Z" fill="#A4D3F2"/>
<path d="M61.7216 47.6117H61.8224L61.9737 48.0208L61.9233 48.2254L61.8224 47.9697V47.8162H61.7216L61.6712 47.9185V47.6628L61.7216 47.6117Z" fill="#A4D3F2"/>
</g>
<defs>
<clipPath id="clip0_1_21">
<rect width="71" height="69" rx="20" fill="white"/>
</clipPath>
</defs>
</svg>
